<svg width="26" height="11" viewBox="0 0 26 11" fill="none" xmlns="http://www.w3.org/2000/svg">
<path fill-rule="evenodd" clip-rule="evenodd" d="M12.0583 8.52797V5.59332H13.573C14.1936 5.59332 14.7175 5.38536 15.1445 4.9752L15.247 4.87122C16.0271 4.02202 15.9759 2.69911 15.1445 1.91346C14.7289 1.49752 14.1595 1.27223 13.573 1.28378H11.1416V8.52797H12.0583ZM12.0585 4.70363V2.17336H13.5961C13.9264 2.17336 14.2396 2.30045 14.4731 2.53153C14.9686 3.01678 14.98 3.82555 14.5016 4.32813C14.2681 4.57654 13.9378 4.71518 13.5961 4.70363H12.0585ZM19.5233 3.95845C19.1304 3.5945 18.5952 3.40964 17.9176 3.40964C17.0464 3.40964 16.3916 3.73315 15.9588 4.37438L16.7674 4.88852C17.0635 4.44948 17.4678 4.22996 17.9802 4.22996C18.3048 4.22996 18.618 4.35127 18.8628 4.5708C19.102 4.77876 19.2386 5.07916 19.2386 5.39689V5.61063C18.8856 5.41422 18.4414 5.31024 17.8948 5.31024C17.2571 5.31024 16.7446 5.46043 16.3631 5.76661C15.9816 6.07278 15.788 6.47716 15.788 6.99131C15.7766 7.45923 15.9759 7.90405 16.3289 8.20445C16.6877 8.52795 17.1432 8.68971 17.6784 8.68971C18.3105 8.68971 18.8116 8.40664 19.1931 7.84051H19.2329V8.52795H20.1098V5.47199C20.1098 4.83075 19.9162 4.32239 19.5233 3.95845ZM17.0352 7.61522C16.8472 7.47658 16.7333 7.25128 16.7333 7.00865C16.7333 6.73714 16.8586 6.51184 17.1035 6.33276C17.3541 6.15368 17.6673 6.06125 18.0375 6.06125C18.55 6.05547 18.9487 6.17101 19.2334 6.40208C19.2334 6.79491 19.0797 7.13574 18.7778 7.42459C18.5045 7.70188 18.1343 7.85785 17.747 7.85785C17.4908 7.86363 17.2402 7.77698 17.0352 7.61522ZM22.08 10.7058L25.1434 3.57139H24.1469L22.7291 7.12994H22.712L21.26 3.57139H20.2636L22.2736 8.21022L21.1348 10.7058H22.08Z" fill="#3C4043"/>
<path d="M8.8936 4.95789C8.8936 4.67483 8.87082 4.39176 8.82527 4.11447H4.95898V5.71467H7.17398C7.08288 6.22881 6.78679 6.69096 6.35404 6.9798V8.01964H7.67506C8.44946 7.29753 8.8936 6.22881 8.8936 4.95789Z" fill="#4285F4"/>
<path d="M4.95915 9.02483C6.0638 9.02483 6.99763 8.65511 7.67523 8.01965L6.3542 6.97982C5.98408 7.234 5.51147 7.37842 4.95915 7.37842C3.88866 7.37842 2.9833 6.64476 2.65874 5.66269H1.29785V6.73719C1.99253 8.14097 3.41036 9.02483 4.95915 9.02483Z" fill="#34A853"/>
<path d="M2.65846 5.66268C2.48761 5.14854 2.48761 4.58818 2.65846 4.06826V2.99954H1.29736C0.710776 4.17225 0.710776 5.5587 1.29736 6.7314L2.65846 5.66268Z" fill="#FBBC04"/>
<path d="M4.95915 2.35253C5.54564 2.34098 6.10935 2.56628 6.53072 2.97643L7.7037 1.7864C6.95777 1.08162 5.97839 0.694569 4.95915 0.706123C3.41036 0.706123 1.99253 1.59576 1.29785 2.99954L2.65874 4.07404C2.9833 3.08619 3.88866 2.35253 4.95915 2.35253Z" fill="#EA4335"/>
</svg>
