<svg width="25" height="8" viewBox="0 0 25 8" fill="none" xmlns="http://www.w3.org/2000/svg">
<path fill-rule="evenodd" clip-rule="evenodd" d="M6.75006 7.85825H4.69031L3.14576 1.79238C3.07245 1.51335 2.91679 1.26667 2.68782 1.15041C2.11639 0.858236 1.48672 0.625711 0.799805 0.508437V0.274901H4.11789C4.57583 0.274901 4.91929 0.625711 4.97653 1.03314L5.77793 5.40865L7.83667 0.274901H9.83916L6.75006 7.85825ZM10.984 7.85825H9.03877L10.6406 0.274901H12.5858L10.984 7.85825ZM15.1025 2.37572C15.1597 1.96728 15.5032 1.73375 15.9039 1.73375C16.5336 1.67511 17.2195 1.79238 17.7919 2.08355L18.1354 0.450816C17.5629 0.21728 16.9333 0.100006 16.3619 0.100006C14.4738 0.100006 13.1 1.15041 13.1 2.60824C13.1 3.71729 14.0731 4.29961 14.7601 4.65042C15.5032 5.00022 15.7894 5.23376 15.7322 5.58356C15.7322 6.10825 15.1597 6.34179 14.5883 6.34179C13.9014 6.34179 13.2145 6.16689 12.5858 5.87472L12.2424 7.50846C12.9293 7.79962 13.6724 7.91689 14.3594 7.91689C16.4763 7.97452 17.7919 6.92512 17.7919 5.35002C17.7919 3.36648 15.1025 3.25022 15.1025 2.37572ZM24.5998 7.85825L23.0553 0.274901H21.3962C21.0528 0.274901 20.7093 0.508438 20.5948 0.858236L17.7347 7.85825H19.7372L20.1369 6.75022H22.5973L22.8263 7.85825H24.5998ZM21.6824 2.31709L22.2539 5.17513H20.6521L21.6824 2.31709Z" fill="#172B85"/>
</svg>
